<?xml version="1.0" encoding="utf-8"?>
<svg xmlns="http://www.w3.org/2000/svg" width="230" height="230" version="1.0" viewBox="0 0 230 230">
<circle r="110" cx="115" cy="115.5" fill="white"/>
<path d="M 91.9 1.8 c -30.5 6.8 -55.5 23.7 -72.7 49.3 C -10.9 96.2 -4.9 156.7 33.5 195.3 c 11.5 11.6 29 22.8 42.2 27.1 c 4.9 1.6 5.5 1.6 7.7 0.1 c 2.4 -1.6 2.5 -2 2.5 -13.5 v -11.8 l -8.8 0.5 c -10.3 0.5 -18.3 -1.3 -23.1 -5.4 c -1.7 -1.4 -5 -6.2 -7.3 -10.6 c -3.8 -7.4 -6.6 -10.8 -14.4 -17.7 c -2.6 -2.3 -2.7 -2.4 -0.9 -3.7 c 4.3 -3.2 13 -0.1 18.5 6.5 c 9.6 11.7 13.3 14.8 18.8 16 c 4.9 1 9.4 0.6 16.2 -1.4 c 0.9 -0.3 2.1 -2.4 2.7 -4.8 c 0.6 -2.3 2.2 -5.8 3.5 -7.7 l 2.4 -3.5 l -8.1 -1.6 c -17 -3.5 -27.5 -9.6 -34.4 -20 c -6.4 -9.6 -8.5 -17.9 -8.6 -33.4 c 0 -14.6 1.6 -20.6 7.9 -28.8 c 2.8 -3.6 3.1 -4.7 2.3 -6.8 c -1.5 -3.6 -1.1 -18.8 0.5 -23.4 c 1.3 -3.4 2 -4 4.7 -4.3 c 4.5 -0.5 12.9 2.4 21.4 7.2 l 7.3 4.2 l 6.4 -1.5 c 9.1 -2.1 36.4 -2 44.6 0 l 6.2 1.6 l 5.8 -3.5 c 7.7 -4.6 17.5 -8.2 22.4 -8.2 c 3.9 0 3.9 0.1 5.5 5.2 c 1.7 5.9 2 16.6 0.5 21.7 c -0.8 3 -0.6 3.9 1.6 6.8 c 10.9 14.4 12.1 38.3 2.9 57.9 c -6.2 12.9 -19.3 21.9 -36.9 25.2 l -8.4 1.6 l 3.1 5.5 l 3.2 5.6 l 0.3 22.3 l 0.4 22.3 l 2.5 1.6 c 2.3 1.5 2.8 1.5 7.6 -0.2 c 8 -2.7 21.7 -10.1 29.2 -15.8 c 44.6 -33.4 59 -93.3 34.3 -143.1 c -14.5 -29.3 -41.9 -51.8 -73.3 -60.2 C 130.7 -0.3 104.9 -1.1 91.9 1.8"/>
</svg>
