<?xml version="1.0" encoding="utf-8"?>
<svg xmlns="http://www.w3.org/2000/svg" viewBox="100 100 312 312">
	<path fill="#557EBF" d="M121.7,372.7h49.5V252.5l-70.7-53.1v152C100.4,363.2,109.9,372.7,121.7,372.7 C121.6,372.7,121.6,372.7,121.7,372.7z"/>
	<path fill="#36A852" d="M340.9,372.7h49.5c11.7,0,21.2-9.5,21.2-21.2V199.4l-70.7,53V372.7z"/>
	<path fill="#F9BC15" d="M340.9,160.6v91.9l70.7-53v-28.3c0-17.6-14.2-31.8-31.8-31.8c-6.9,0-13.6,2.2-19.1,6.4L340.9,160.6z"/>
	<path fill="#EA4535" d="M171.1,252.5v-91.9l84.9,63.6l84.9-63.6v91.9L256,316.1L171.1,252.5z"/>
	<path fill="#C52627" d="M100.4,171.1v28.3l70.7,53v-91.9l-19.8-14.9c-14.1-10.5-34-7.7-44.6,6.4 C102.6,157.6,100.4,164.3,100.4,171.1z"/>
</svg>
